ply
format ascii 1.0
comment Created by Open3D
element vertex 16
property double x
property double y
property double z
property double nx
property double ny
property double nz
property uchar red
property uchar green
property uchar blue
element face 17
property list uchar uint vertex_indices
end_header
0 0 1 0 6.83383e-18 1 0 255 0
0 0 -1 0 -6.83383e-18 -1 0 255 0
0.587785 0 0.809017 0.658541 -0.0790092 0.748386 0 255 0
0.475528 0.345492 0.809017 0.579211 0.323161 0.748386 0 0 255
0.181636 0.559017 0.809017 0.278643 0.601895 0.748386 255 0 0
-0.181636 0.559017 0.809017 -0.128358 0.650725 0.748386 255 0 0
-0.475528 0.345492 0.809017 -0.486331 0.451001 0.748386 0 255 0
-0.587785 7.19829e-17 0.809017 -0.658541 0.0790092 0.748386 0 255 0
-0.475528 -0.345492 0.809017 -0.579211 -0.323161 0.748386 0 255 0
-0.181636 -0.559017 0.809017 -0.278643 -0.601895 0.748386 0 0 255
0.181636 -0.559017 0.809017 0.128358 -0.650725 0.748386 255 0 0
0.475528 -0.345492 0.809017 0.486331 -0.451001 0.748386 0 255 0
0.951057 0 0.309017 0.957207 -0.0303843 0.287804 0 0 255
0.769421 0.559017 0.309017 0.792256 0.538051 0.287804 0 0 255
0.293893 0.904508 0.309017 0.32469 0.900969 0.287804 255 0 0
-0.293893 0.904508 0.309017 -0.266896 0.919747 0.287804 255 0 0
3 0 2 3
3 0 3 4
3 0 4 5
3 0 5 6
3 0 6 7
3 0 7 8
3 0 8 9
3 0 9 10
3 0 10 11
3 0 11 2
3 12 3 2
3 12 13 3
3 13 4 3
3 13 14 4
3 14 5 4
3 14 15 5
3 15 6 5
